<svg width="20" height="20" viewBox="0 0 20 20" fill="none" xmlns="http://www.w3.org/2000/svg">
<path fill-rule="evenodd" clip-rule="evenodd" d="M10 20C15.5228 20 20 15.5228 20 10C20 4.47715 15.5228 0 10 0C4.47715 0 0 4.47715 0 10C0 15.5228 4.47715 20 10 20Z" fill="#FF7437"/>
<path fill-rule="evenodd" clip-rule="evenodd" d="M12.8054 10.1398C13.3577 10.1398 13.8054 9.69206 13.8054 9.13977C13.8054 8.58749 13.3577 8.13977 12.8054 8.13977C12.2531 8.13977 11.8054 8.58749 11.8054 9.13977C11.8054 9.69206 12.2531 10.1398 12.8054 10.1398Z" fill="#0A1A2E"/>
<rect x="12.1467" y="6.89575" width="2.5" height="1" rx="0.5" transform="rotate(25 12.1467 6.89575)" fill="#FF7437"/>
<path fill-rule="evenodd" clip-rule="evenodd" d="M7.12378 10.1398C6.57149 10.1398 6.12378 9.69206 6.12378 9.13977C6.12378 8.58749 6.57149 8.13977 7.12378 8.13977C7.67606 8.13977 8.12378 8.58749 8.12378 9.13977C8.12378 9.69206 7.67606 10.1398 7.12378 10.1398Z" fill="#0A1A2E"/>
<rect width="2.5" height="1" rx="0.5" transform="matrix(-0.906308 0.422618 0.422618 0.906308 7.78247 6.89575)" fill="#FF7437"/>
<path fill-rule="evenodd" clip-rule="evenodd" d="M8.05731 12.9935C6.7139 13.7267 7.68762 15.2756 9.20736 15.0944L10.0001 14.9998L10.7927 15.0944C12.3125 15.2756 13.2862 13.7267 11.9428 12.9935C11.4023 12.6984 10.7572 12.4998 10 12.4998C9.24289 12.4998 8.59783 12.6984 8.05731 12.9935Z" fill="#0A1A2E"/>
<mask id="mask0_3613_96479" style="mask-type:luminance" maskUnits="userSpaceOnUse" x="7" y="12" width="6" height="4">
<path fill-rule="evenodd" clip-rule="evenodd" d="M8.05731 12.9935C6.7139 13.7267 7.68762 15.2756 9.20736 15.0944L10.0001 14.9998L10.7927 15.0944C12.3125 15.2756 13.2862 13.7267 11.9428 12.9935C11.4023 12.6984 10.7572 12.4998 10 12.4998C9.24289 12.4998 8.59783 12.6984 8.05731 12.9935Z" fill="white"/>
</mask>
<g mask="url(#mask0_3613_96479)">
<rect x="7.99902" y="14.4999" width="4" height="3.5" rx="1.75" fill="#FFB18E"/>
</g>
</svg>
