<svg width="50" height="63" viewBox="0 0 50 63" fill="none" xmlns="http://www.w3.org/2000/svg">
<g filter="url(#filter0_d_3327_84649)">
<path d="M42.9998 21.0692C42.9998 38.535 23.0002 52.7073 23.0002 52.7073C23.0002 52.7073 3.00021 38.535 3.00021 21.0692C2.98821 18.438 3.49666 15.8304 4.49637 13.396C5.49608 10.9616 6.96734 8.74849 8.82569 6.88369C10.684 5.0189 12.8928 3.53917 15.3253 2.52947C17.7577 1.51977 20.3659 1 23 1C25.6341 1 28.2423 1.51977 30.6747 2.52947C33.1071 3.53917 35.316 5.0189 37.1743 6.88369C39.0327 8.74849 40.5039 10.9616 41.5036 13.396C42.5033 15.8304 43.0118 18.438 42.9998 21.0692Z" fill="#B5CDFF"/>
</g>
<ellipse cx="22.922" cy="20.9002" rx="16.6016" ry="16.5836" fill="white"/>
<path d="M14.4057 29.9681H17.1466C18.0333 29.9681 18.7588 29.3975 18.7588 28.7002V26.9886H12.7935V28.7002C12.7935 29.3975 13.519 29.9681 14.4057 29.9681Z" fill="white" stroke="black" stroke-width="1.2"/>
<path d="M28.3249 29.9681H31.0658C31.9525 29.9681 32.678 29.3975 32.678 28.7002V26.9886H26.7126V28.7002C26.7126 29.3975 27.4382 29.9681 28.3249 29.9681Z" fill="white" stroke="black" stroke-width="1.2"/>
<path d="M17.7645 27.9463H14.4863C14.2176 27.9463 14.0026 28.0261 13.7876 27.9463V26.9886H17.7645V27.9463Z" fill="#94A6B2"/>
<path d="M31.6837 27.9463H28.4055C28.1368 27.9463 27.9218 28.0261 27.7068 27.9463V26.9886H31.6837V27.9463Z" fill="#94A6B2"/>
<path d="M13.5727 16.9673H12.0618C11.6482 16.9673 11.3049 16.6355 11.3049 16.1719C11.3049 15.7082 11.6482 15.3765 12.0618 15.3765H13.5727V16.9673Z" fill="#DBD8DD" stroke="black"/>
<path d="M33.6787 16.9673H32.1677V15.3765H33.6786C34.0922 15.3765 34.4355 15.7082 34.4355 16.1719C34.4355 16.6356 34.0922 16.9673 33.6787 16.9673Z" fill="#DBD8DD" stroke="black"/>
<path d="M31.6836 17.0571C31.438 15.9221 31.1432 14.6925 30.8484 13.3683C30.701 12.6116 30.0622 11.9022 29.4235 11.7603C27.3599 11.3347 25.2963 11.0983 23.1836 11.0983C22.8396 11.0983 22.5448 11.0983 22.2009 11.0983C21.7096 11.0983 21.2183 11.1456 20.6778 11.1928C20.1864 11.2401 19.6951 11.2874 19.2038 11.3347C18.8598 11.382 18.5159 11.4293 18.172 11.4766C17.828 11.6185 17.3858 11.713 16.9928 11.8077C16.354 11.9495 15.7153 12.6116 15.5679 13.3683C15.4696 13.9358 15.3222 14.5033 15.2239 15.0235C15.1257 15.4965 15.0274 15.9694 14.9291 16.395C14.88 16.6315 14.8309 16.8206 14.7817 17.0571H31.6836V17.0571Z" fill="#54C0EB"/>
<path d="M29.015 10.6996C24.924 9.90693 20.6426 9.90693 16.504 10.6996C15.4574 10.9082 14.6011 11.7843 14.3633 12.7855C13.84 14.9966 13.3167 17.0826 12.7935 19.0434C19.4058 19.0434 26.0657 19.0434 32.678 19.0434C32.1547 17.0826 31.6314 14.9966 31.1082 12.7855C30.9179 11.826 30.014 10.9082 29.015 10.6996Z" fill="white" stroke="black" stroke-width="1.2"/>
<path d="M19.1334 11.519L14.6592 17.0376C14.7597 16.5691 14.8603 16.0484 14.9608 15.5278L18.0777 11.6752C18.4296 11.6232 18.7815 11.5711 19.1334 11.519Z" fill="white"/>
<path d="M16.9216 17.7144L22.2001 11.2067C21.6974 11.2067 21.1947 11.2587 20.6417 11.3108L15.4636 17.7144H16.9216Z" fill="white"/>
<path d="M33.46 26.9884H11.9979C11.2791 26.9884 10.7143 26.2751 10.817 25.507V20.2395C11.1251 18.3739 12.6141 17.057 14.3598 17.057H31.0982C32.8439 17.057 34.3329 18.3739 34.641 20.2395V25.507C34.795 26.2751 34.2302 26.9884 33.46 26.9884Z" fill="#CDD6E0"/>
<path d="M33.4926 26.9884H11.9997C11.2798 26.9884 10.7142 26.2751 10.817 25.507V20.2395C10.9199 19.5261 11.2284 18.8677 11.6911 18.3739C12.3596 17.5508 13.3365 17.057 14.3649 17.057H31.1273C32.2071 17.057 33.1841 17.5508 33.8011 18.3739C34.2124 18.8677 34.5209 19.5261 34.6238 20.2395V25.507C34.8295 26.2751 34.2639 26.9884 33.4926 26.9884Z" fill="#C6D9FF" stroke="black" stroke-width="1.2"/>
<path d="M17.1415 22.1218C17.1415 23.1143 16.3639 23.8981 15.43 23.8981C14.4962 23.8981 13.7186 23.1143 13.7186 22.1218C13.7186 21.1293 14.4962 20.3456 15.43 20.3456C16.3639 20.3456 17.1415 21.1293 17.1415 22.1218Z" fill="white" stroke="black" stroke-width="0.8"/>
<path d="M31.9718 22.1219C31.9718 23.1144 31.1943 23.8982 30.2604 23.8982C29.3265 23.8982 28.5489 23.1144 28.5489 22.1219C28.5489 21.1294 29.3265 20.3457 30.2604 20.3457C31.1943 20.3457 31.9718 21.1294 31.9718 22.1219Z" fill="white" stroke="black" stroke-width="0.8"/>
<path d="M22.4 19.0433H22.0772C21.9881 19.0433 21.9027 18.991 21.8398 18.8979C21.7768 18.8047 21.7415 18.6784 21.7415 18.5467C21.7415 18.415 21.7768 18.2887 21.8398 18.1956C21.9027 18.1025 21.9881 18.0502 22.0772 18.0502H22.4C22.489 18.0502 22.5744 18.1025 22.6374 18.1956C22.7003 18.2887 22.7357 18.415 22.7357 18.5467C22.7357 18.6784 22.7003 18.8047 22.6374 18.8979C22.5744 18.991 22.489 19.0433 22.4 19.0433Z" fill="white"/>
<path d="M30.3105 19.0433H24.109C24.0085 19.0433 23.9121 18.991 23.841 18.8979C23.7699 18.8047 23.73 18.6784 23.73 18.5467C23.73 18.415 23.7699 18.2887 23.841 18.1956C23.9121 18.1025 24.0085 18.0502 24.109 18.0502H30.3105C30.4111 18.0502 30.5075 18.1025 30.5786 18.1956C30.6496 18.2887 30.6896 18.415 30.6896 18.5467C30.6896 18.6784 30.6496 18.8047 30.5786 18.8979C30.5075 18.991 30.4111 19.0433 30.3105 19.0433Z" fill="white"/>
<path fill-rule="evenodd" clip-rule="evenodd" d="M24.6372 24.7412C25.9195 23.917 24.9178 22.3902 23.4049 22.5761L22.3689 22.7035L21.3329 22.5761C19.82 22.3902 18.8184 23.917 20.1006 24.7412C20.7124 25.1343 21.4646 25.4122 22.3689 25.4122C23.2732 25.4122 24.0255 25.1343 24.6372 24.7412Z" fill="#15355E"/>
<mask id="mask0_3327_84649" style="mask-type:luminance" maskUnits="userSpaceOnUse" x="19" y="22" width="7" height="4">
<path fill-rule="evenodd" clip-rule="evenodd" d="M24.6372 24.7412C25.9195 23.917 24.9178 22.3902 23.4049 22.5761L22.3689 22.7035L21.3329 22.5761C19.82 22.3902 18.8184 23.917 20.1006 24.7412C20.7124 25.1343 21.4646 25.4122 22.3689 25.4122C23.2732 25.4122 24.0255 25.1343 24.6372 24.7412Z" fill="white"/>
</mask>
<g mask="url(#mask0_3327_84649)">
<rect x="24.4712" y="23.967" width="4.20479" height="3.79215" rx="1.89607" transform="rotate(-180 24.4712 23.967)" fill="#FFB18E"/>
</g>
<path d="M23.0002 0.366821C17.5054 0.372966 12.2373 2.55605 8.35176 6.43715C4.46619 10.3183 2.28041 15.5804 2.27393 21.0693C2.27393 38.7072 21.751 52.7116 22.5798 53.2994C22.7028 53.3863 22.8496 53.433 23.0002 53.433C23.1508 53.433 23.2977 53.3863 23.4207 53.2994C24.2508 52.7116 43.7262 38.7059 43.7262 21.0693C43.7197 15.5805 41.534 10.3184 37.6485 6.4373C33.763 2.55621 28.495 0.373075 23.0002 0.366821V0.366821ZM23.0002 51.8057C20.1414 49.6469 3.72698 36.5724 3.72698 21.0706C3.7152 18.5348 4.20503 16.0216 5.16834 13.6755C6.13164 11.3293 7.54944 9.19639 9.34032 7.39914C11.1312 5.60189 13.2599 4.17575 15.6041 3.20262C17.9483 2.22949 20.4619 1.72854 23.0005 1.72854C25.539 1.72854 28.0526 2.22949 30.3968 3.20262C32.741 4.17575 34.8697 5.60189 36.6606 7.39914C38.4515 9.19639 39.8693 11.3293 40.8326 13.6755C41.7959 16.0216 42.2857 18.5348 42.2739 21.0706C42.2735 36.5604 25.8578 49.6453 23.0002 51.8044V51.8057Z" fill="white"/>
<defs>
<filter id="filter0_d_3327_84649" x="0" y="1" width="50" height="61.7073" filterUnits="userSpaceOnUse" color-interpolation-filters="sRGB">
<feFlood flood-opacity="0" result="BackgroundImageFix"/>
<feColorMatrix in="SourceAlpha" type="matrix" values="0 0 0 0 0 0 0 0 0 0 0 0 0 0 0 0 0 0 127 0" result="hardAlpha"/>
<feOffset dx="2" dy="5"/>
<feGaussianBlur stdDeviation="2.5"/>
<feComposite in2="hardAlpha" operator="out"/>
<feColorMatrix type="matrix" values="0 0 0 0 0 0 0 0 0 0 0 0 0 0 0 0 0 0 0.35 0"/>
<feBlend mode="normal" in2="BackgroundImageFix" result="effect1_dropShadow_3327_84649"/>
<feBlend mode="normal" in="SourceGraphic" in2="effect1_dropShadow_3327_84649" result="shape"/>
</filter>
</defs>
</svg>
