<svg width="20" height="20" viewBox="0 0 20 20" fill="none" xmlns="http://www.w3.org/2000/svg">
<path fill-rule="evenodd" clip-rule="evenodd" d="M10 20C15.5228 20 20 15.5228 20 10C20 4.47715 15.5228 0 10 0C4.47715 0 0 4.47715 0 10C0 15.5228 4.47715 20 10 20Z" fill="#29F8AC"/>
<path fill-rule="evenodd" clip-rule="evenodd" d="M12.0132 14.6734C13.3567 13.9401 12.3829 12.3912 10.8632 12.5725L10.0705 12.6671L9.27781 12.5725C7.75808 12.3912 6.78436 13.9401 8.12777 14.6734C8.66829 14.9684 9.31335 15.1671 10.0705 15.1671C10.8277 15.1671 11.4727 14.9684 12.0132 14.6734Z" fill="#0A1A2E"/>
<mask id="mask0_3613_96276" style="mask-type:luminance" maskUnits="userSpaceOnUse" x="7" y="12" width="6" height="4">
<path fill-rule="evenodd" clip-rule="evenodd" d="M12.0132 14.6734C13.3567 13.9401 12.3829 12.3912 10.8632 12.5725L10.0705 12.6671L9.27781 12.5725C7.75808 12.3912 6.78436 13.9401 8.12777 14.6734C8.66829 14.9684 9.31335 15.1671 10.0705 15.1671C10.8277 15.1671 11.4727 14.9684 12.0132 14.6734Z" fill="white"/>
</mask>
<g mask="url(#mask0_3613_96276)">
<rect x="12.0715" y="13.167" width="4" height="3.5" rx="1.75" transform="rotate(-180 12.0715 13.167)" fill="#29F8AC"/>
</g>
<path d="M14.517 8.58667C14.517 8.03439 14.0693 7.58667 13.517 7.58667C12.9647 7.58667 12.517 8.03439 12.517 8.58667" stroke="#0A1A2E" stroke-width="1.3" stroke-linecap="round"/>
<path d="M7.51794 8.58667C7.51794 8.03439 7.07023 7.58667 6.51794 7.58667C5.96566 7.58667 5.51794 8.03439 5.51794 8.58667" stroke="#0A1A2E" stroke-width="1.3" stroke-linecap="round"/>
</svg>
