<svg width="26" height="28" viewBox="0 0 26 28" fill="none" xmlns="http://www.w3.org/2000/svg">
<mask id="mask0_3642_468" style="mask-type:luminance" maskUnits="userSpaceOnUse" x="1" y="25" width="24" height="3">
<path fill-rule="evenodd" clip-rule="evenodd" d="M1.11865 25.9442H24.5725V27.8819H1.11865V25.9442Z" fill="white"/>
</mask>
<g mask="url(#mask0_3642_468)">
<path fill-rule="evenodd" clip-rule="evenodd" d="M12.8457 25.9442C19.3223 25.9442 24.5725 26.378 24.5725 26.9132C24.5725 27.4483 19.3223 27.882 12.8457 27.882C6.3691 27.8817 1.11865 27.4483 1.11865 26.9132C1.11865 26.3778 6.3691 25.9442 12.8457 25.9442Z" fill="#E3E3E3"/>
</g>
<path fill-rule="evenodd" clip-rule="evenodd" d="M12.8687 6.98608H16.1004C18.087 6.98608 19.6392 7.97455 20.0486 10.2318C20.2895 11.5601 20.2461 13.7244 18.4416 13.7244L12.8687 13.7242H12.726H12.7244H7.29598C6.37214 13.7242 5.90988 13.1572 5.711 12.4253C5.52134 11.7276 5.57122 10.8801 5.68898 10.2318C6.09843 7.97432 7.65059 6.98608 9.63715 6.98608H12.7244H12.726H12.8687ZM12.8686 24.2395H18.4593V24.9222C18.4593 25.9602 19.3139 26.8098 20.3589 26.8098C21.4036 26.8098 22.2584 25.9602 22.2584 24.9222V23.8937C24.2915 23.1286 25.7374 21.1763 25.7374 18.8876C25.7374 17.0478 24.8028 15.425 23.38 14.462L22.8924 12.0007L22.4892 10.0459H22.4672L22.4238 9.80625C22.1578 8.3403 21.5213 7.139 20.6022 6.25997C20.8559 5.70812 21.1607 5.18039 21.5103 4.67276C21.6375 4.48762 21.7706 4.30582 21.9092 4.12649C22.1409 4.21292 22.3917 4.26049 22.6537 4.26049C23.8225 4.26026 24.7702 3.31892 24.7702 2.15716C24.7702 0.99561 23.8225 0.0540461 22.6537 0.0540461C21.4849 0.0538228 20.5373 0.99561 20.5373 2.15716C20.5373 2.506 20.6229 2.83519 20.7744 3.12485C20.5944 3.35376 20.4225 3.5867 20.2591 3.8241C19.9209 4.3152 19.6186 4.82552 19.3566 5.35704C18.4231 4.85499 17.3215 4.58767 16.1003 4.58767H12.8686H12.7243H9.63706C8.42467 4.58767 7.33027 4.8512 6.40103 5.3461C6.13856 4.80698 5.83495 4.29041 5.49472 3.79395C5.3264 3.54828 5.1491 3.30731 4.96303 3.07058C5.11426 2.78092 5.19988 2.45195 5.19988 2.10311C5.19988 0.941564 4.25245 0 3.08366 0C1.91465 0 0.967211 0.941787 0.967211 2.10311C0.967211 3.26443 1.91465 4.20622 3.08366 4.20622C3.34569 4.20622 3.59626 4.15887 3.82795 4.07244C3.97244 4.25937 4.1111 4.44943 4.24346 4.64261C4.59448 5.15471 4.89988 5.68735 5.15314 6.24277C4.22391 7.12315 3.5812 8.33092 3.31355 9.80647L3.27018 10.0459H3.24816L2.84478 12.0007L2.35713 14.4618C0.934402 15.425 0 17.0478 0 18.8876C0 21.1763 1.44565 23.1288 3.47895 23.8937V24.9222C3.47895 25.9602 4.3338 26.8098 5.37854 26.8098C6.42328 26.8098 7.27813 25.9602 7.27813 24.9222V24.2395H12.7243H12.7259H12.8686Z" fill="#FFAA00"/>
<path fill-rule="evenodd" clip-rule="evenodd" d="M10.9891 21.3783C10.1344 20.7419 10.7904 19.6416 11.856 19.6416H13.8817C14.9474 19.6416 15.6033 20.7419 14.7486 21.3783C14.2641 21.7391 13.642 22.0122 12.8689 22.0122C12.0958 22.0122 11.4737 21.7391 10.9891 21.3783Z" fill="#1C1C1C"/>
<mask id="mask1_3642_468" style="mask-type:luminance" maskUnits="userSpaceOnUse" x="10" y="19" width="6" height="4">
<path fill-rule="evenodd" clip-rule="evenodd" d="M10.9891 21.3783C10.1344 20.7419 10.7904 19.6416 11.856 19.6416H13.8817C14.9474 19.6416 15.6033 20.7419 14.7486 21.3783C14.2641 21.7391 13.642 22.0122 12.8689 22.0122C12.0958 22.0122 11.4737 21.7391 10.9891 21.3783Z" fill="white"/>
</mask>
<g mask="url(#mask1_3642_468)">
<rect x="11.1162" y="20.9962" width="3.50602" height="2.0319" rx="1.01595" fill="#F95555"/>
</g>
<path d="M9.1435 17.9484C9.1435 17.3874 8.61283 16.9325 7.95822 16.9325C7.30361 16.9325 6.77295 17.3874 6.77295 17.9484" stroke="#1C1C1C" stroke-width="1.3" stroke-linecap="round"/>
<path d="M18.9643 17.9483C18.9643 17.3872 18.4336 16.9324 17.779 16.9324C17.1244 16.9324 16.5938 17.3872 16.5938 17.9483" stroke="#1C1C1C" stroke-width="1.3" stroke-linecap="round"/>
</svg>
