<svg width="12" height="21" viewBox="0 0 12 21" fill="none" xmlns="http://www.w3.org/2000/svg">
<path d="M5.99949 9.84082C5.67235 9.84082 5.29492 10.0567 5.29492 10.4447V19.6462C5.29492 20.0343 5.67235 20.2501 5.99949 20.2501C6.32662 20.2501 6.70405 20.0343 6.70405 19.6462V10.4447C6.70405 10.0567 6.32662 9.84082 5.99949 9.84082Z" fill="black" stroke="black" stroke-width="0.5"/>
<path d="M5.99996 0.75C3.10556 0.75 0.75 3.10461 0.75 5.99997C0.75 8.89533 3.10555 11.25 5.99996 11.25C8.89437 11.25 11.2499 8.89538 11.2499 6.00001C11.2499 3.10465 8.89438 0.75 5.99996 0.75ZM5.99996 9.84087C3.88259 9.84087 2.15907 8.11735 2.15907 5.99997C2.15907 3.88259 3.88259 2.15907 5.99996 2.15907C8.11734 2.15907 9.84086 3.88259 9.84086 5.99997C9.84086 8.11735 8.11734 9.84087 5.99996 9.84087Z" fill="black" stroke="black" stroke-width="0.5"/>
</svg>
