<svg width="19" height="17" viewBox="0 0 19 17" fill="none" xmlns="http://www.w3.org/2000/svg">
<path d="M9.5 0.000271409C4.2353 0.000271409 0 3.40432 0 7.60027C0 9.18365 0.59375 10.6481 1.6625 11.8753C1.62287 13.3398 1.02912 14.8044 0 16.3084C2.33537 16.0709 4.11655 15.4771 5.1853 14.3687C6.49155 14.8834 7.95618 15.2 9.5 15.2C14.7647 15.2 19 11.7959 19 7.6C19 3.40439 14.7647 0 9.5 0V0.000271409ZM9.5 3.16689C10.4104 3.16689 11.1625 3.91902 11.1625 4.82939C11.1625 5.73976 10.4104 6.49189 9.5 6.49189C8.58963 6.49189 7.8375 5.73976 7.8375 4.82939C7.8375 3.91902 8.58963 3.16689 9.5 3.16689ZM12.5479 10.7669H6.45226C6.09601 10.7669 5.85851 10.4503 5.93764 10.1335C6.33351 8.51064 7.75851 7.32314 9.50014 7.32314C11.2418 7.32314 12.6668 8.51064 13.0626 10.1335C13.1418 10.4503 12.8648 10.7669 12.548 10.7669H12.5479Z" fill="#3478F6"/>
<rect x="4" y="3" width="11" height="9" fill="#3478F6"/>
<path d="M12.2777 7.61113C12.2777 8.22479 12.7752 8.72226 13.3889 8.72226C14.0025 8.72226 14.5 8.22479 14.5 7.61113C14.5 6.99747 14.0025 6.5 13.3889 6.5C12.7752 6.5 12.2777 6.99747 12.2777 7.61113Z" fill="white"/>
<path d="M8.38907 7.61113C8.38907 8.22479 8.88654 8.72226 9.5002 8.72226C10.1139 8.72226 10.6113 8.22479 10.6113 7.61113C10.6113 6.99747 10.1139 6.5 9.5002 6.5C8.88654 6.5 8.38907 6.99747 8.38907 7.61113Z" fill="white"/>
<path d="M4.50042 7.61113C4.50042 8.22479 4.99788 8.72226 5.61154 8.72226C6.22519 8.72226 6.72266 8.22479 6.72266 7.61113C6.72266 6.99747 6.22519 6.5 5.61154 6.5C4.99788 6.5 4.50042 6.99747 4.50042 7.61113Z" fill="white"/>
</svg>
