<svg width="23" height="23" viewBox="0 0 23 23" fill="none" xmlns="http://www.w3.org/2000/svg">
<path d="M16.8807 13.9931C15.3601 13.9931 14.1231 15.2301 14.1231 16.7507C14.1231 18.2714 15.3601 19.5083 16.8807 19.5083C18.4016 19.5083 19.6383 18.2714 19.6383 16.7507C19.6383 15.2301 18.4014 13.9931 16.8807 13.9931ZM16.8807 17.9795C16.2031 17.9795 15.6519 17.4283 15.6519 16.7507C15.6519 16.0731 16.2031 15.5219 16.8807 15.5219C17.5583 15.5219 18.1095 16.0731 18.1095 16.7507C18.1095 17.4283 17.5583 17.9795 16.8807 17.9795Z" fill="#9DB8FF" stroke="#9DB8FF" stroke-width="0.2"/>
<path d="M7.80089 13.9931C6.28024 13.9931 5.04331 15.2301 5.04331 16.7507C5.04331 18.2714 6.28024 19.5083 7.80089 19.5083C9.32154 19.5083 10.5585 18.2714 10.5585 16.7507C10.5585 15.2301 9.32154 13.9931 7.80089 13.9931ZM7.80089 17.9795C7.12331 17.9795 6.5721 17.4283 6.5721 16.7507C6.5721 16.0731 7.12331 15.5219 7.80089 15.5219C8.47828 15.5219 9.02968 16.0731 9.02968 16.7507C9.02968 17.4283 8.47848 17.9795 7.80089 17.9795Z" fill="#9DB8FF" stroke="#9DB8FF" stroke-width="0.2"/>
<path d="M18.7604 6.44143L18.7603 6.44138C18.6304 6.18331 18.3662 6.02048 18.0773 6.02048H14.5781H14.4781V6.12048V7.44928V7.54928H14.5781H17.6059L19.3873 11.0925L19.4323 11.1819L19.5216 11.137L20.7091 10.5399L20.7985 10.495L20.7535 10.4056L18.7604 6.44143Z" fill="#9DB8FF" stroke="#9DB8FF" stroke-width="0.2"/>
<path d="M14.9883 16.1085V16.0085H14.8883H9.86108H9.76108V16.1085V17.4373V17.5373H9.86108H14.8883H14.9883V17.4373V16.1085Z" fill="#9DB8FF" stroke="#9DB8FF" stroke-width="0.2"/>
<path d="M5.80791 16.0084H3.50471C3.08249 16.0084 2.74033 16.3506 2.74033 16.7728C2.74033 17.195 3.08254 17.5372 3.50471 17.5372H5.80795C6.23017 17.5372 6.57232 17.1949 6.57232 16.7728C6.57232 16.3506 6.23011 16.0084 5.80791 16.0084Z" fill="#9DB8FF" stroke="#9DB8FF" stroke-width="0.2"/>
<path d="M21.9808 11.9855L21.9808 11.9855L20.674 10.3024C20.5294 10.1158 20.3064 10.0068 20.0703 10.0068H15.3423V5.456C15.3423 5.03378 15.0001 4.69163 14.578 4.69163H3.50471C3.08249 4.69163 2.74033 5.03383 2.74033 5.456C2.74033 5.87817 3.08254 6.22038 3.50471 6.22038H13.8135V10.7711C13.8135 11.1933 14.1557 11.5355 14.5779 11.5355H19.696L20.6125 12.7162V16.0084H18.8743C18.4521 16.0084 18.1099 16.3506 18.1099 16.7728C18.1099 17.195 18.4522 17.5372 18.8743 17.5372H21.3769C21.7991 17.5372 22.1412 17.1949 22.1413 16.7728V12.4543C22.1413 12.2846 22.0847 12.1195 21.9808 11.9855Z" fill="#9DB8FF" stroke="#9DB8FF" stroke-width="0.2"/>
<path d="M2.70832 12.6422H5.76455C6.18672 12.6422 6.52893 12.9844 6.52889 13.4066L2.70832 12.6422ZM2.70832 12.6422C2.2861 12.6422 1.94395 12.9844 1.94395 13.4066M2.70832 12.6422L1.94395 13.4066M1.94395 13.4066C1.94395 13.8288 2.28615 14.1709 2.70832 14.1709M1.94395 13.4066L2.70832 14.1709M2.70832 14.1709H5.76451M2.70832 14.1709H5.76451M5.76451 14.1709C6.18673 14.1709 6.52888 13.8287 6.52889 13.4066L5.76451 14.1709Z" fill="#9DB8FF" stroke="#9DB8FF" stroke-width="0.2"/>
<path d="M7.29214 10.0289H1.62263C1.20045 10.0289 0.858252 10.3711 0.858252 10.7933C0.858252 11.2155 1.20046 11.5577 1.62263 11.5577H7.29214C7.71435 11.5577 8.05651 11.2155 8.05651 10.7933C8.05651 10.3712 7.71436 10.0289 7.29214 10.0289Z" fill="#9DB8FF" stroke="#9DB8FF" stroke-width="0.2"/>
<path d="M2.70832 7.41562H8.37783C8.80003 7.41562 9.14225 7.75782 9.1422 8.18L2.70832 7.41562ZM2.70832 7.41562C2.2861 7.41562 1.94395 7.75783 1.94395 8.18M2.70832 7.41562L1.94395 8.18M1.94395 8.18C1.94395 8.60222 2.28615 8.94438 2.70832 8.94438M1.94395 8.18L2.70832 8.94438M2.70832 8.94438H8.37783M2.70832 8.94438H8.37783M8.37783 8.94438C8.80004 8.94438 9.1422 8.60217 9.1422 8.18001L8.37783 8.94438Z" fill="#9DB8FF" stroke="#9DB8FF" stroke-width="0.2"/>
</svg>
