<svg width="23" height="23" viewBox="0 0 23 23" fill="none" xmlns="http://www.w3.org/2000/svg">
<path d="M14.6585 12.6113L6.27048 4.22331C6.06983 4.60828 5.75409 4.92404 5.36909 5.1247L13.7571 13.5126H14.6585V12.6113ZM20.43 14.3689L20.43 14.3689L19.6738 13.6126H16.1334V16.2631C17.1365 16.2808 18.0118 16.8289 18.4921 17.6376H19.9792C20.3307 17.6376 20.6168 17.3516 20.6168 17.0001V16.3626H19.9792C19.572 16.3626 19.2417 16.0325 19.2417 15.6251C19.2417 15.2179 19.5719 14.8876 19.9792 14.8876H20.6168V14.8196C20.6168 14.6493 20.5505 14.4893 20.43 14.3689ZM3.02092 13.5126H11.6711L5.13342 6.97493V7.75026C5.13342 8.52922 4.73906 9.22391 4.09997 9.5602C3.88922 9.67107 3.75843 9.88746 3.75843 10.1251C3.75843 10.4766 4.04447 10.7626 4.39594 10.7626C4.74742 10.7626 5.03346 10.4766 5.03346 10.1251C5.03346 9.71782 5.36365 9.38759 5.77097 9.38759C6.17829 9.38759 6.50849 9.71778 6.50849 10.1251C6.50849 11.29 5.56087 12.2376 4.39599 12.2376C3.23111 12.2376 2.28349 11.29 2.28349 10.1251C2.28349 9.33813 2.71644 8.6214 3.41321 8.2548C3.5541 8.18064 3.65847 7.98123 3.65847 7.75018V5.49986C3.46586 5.30726 3.3172 5.15885 3.20203 5.04388C3.04968 4.89179 2.95594 4.79821 2.89661 4.73825C2.84418 4.68526 2.81753 4.65744 2.80083 4.63829C2.78665 4.62201 2.77916 4.61134 2.77073 4.59933C2.76904 4.59693 2.76732 4.59447 2.76549 4.59189C2.46451 4.22682 2.28344 3.75918 2.28344 3.25012C2.28344 2.08524 3.23107 1.13762 4.39594 1.13762C4.97265 1.13762 5.52465 1.39149 5.83051 1.69743L14.6584 10.5253V8.75011C14.6584 8.34284 14.9886 8.0126 15.3959 8.0126H18.6043C19.7691 8.0126 20.7168 8.96022 20.7168 10.1251V12.5696L21.473 13.3259C21.8719 13.7248 22.0917 14.2555 22.0917 14.8196V17.0001C22.0917 18.165 21.1441 19.1126 19.9792 19.1126H18.883C18.8562 20.6336 17.6107 21.8626 16.0834 21.8626C14.5561 21.8626 13.3106 20.6336 13.2838 19.1126H9.25794C9.23117 20.6336 7.98563 21.8626 6.45836 21.8626C4.9311 21.8626 3.68555 20.6336 3.65879 19.1126H3.02083C1.85595 19.1126 0.908333 18.165 0.908333 17.0001V15.6251C0.908417 14.4603 1.85604 13.5126 3.02092 13.5126ZM4.3959 2.61265C4.04443 2.61265 3.75839 2.89869 3.75839 3.25016C3.75839 3.60164 4.04443 3.88768 4.3959 3.88768C4.74738 3.88768 5.03342 3.60164 5.03342 3.25016C5.03342 2.89865 4.74738 2.61265 4.3959 2.61265ZM19.2417 10.1251C19.2417 9.77367 18.9557 9.48763 18.6042 9.48763H16.1334V12.1376H19.2417V10.1251ZM16.0834 20.3876C16.814 20.3876 17.4084 19.7932 17.4084 19.0626C17.4084 18.3321 16.814 17.7376 16.0834 17.7376C15.3528 17.7376 14.7584 18.3321 14.7584 19.0626C14.7584 19.7932 15.3528 20.3876 16.0834 20.3876ZM6.45841 20.3876C7.18897 20.3876 7.78339 19.7932 7.78339 19.0626C7.78339 18.3321 7.18897 17.7376 6.45841 17.7376C5.72784 17.7376 5.13342 18.3321 5.13342 19.0626C5.13342 19.7932 5.72784 20.3876 6.45841 20.3876ZM2.3834 17.0001C2.3834 17.3516 2.66944 17.6376 3.02092 17.6376H4.04975C4.53797 16.8155 5.43446 16.2626 6.45841 16.2626C7.48235 16.2626 8.37884 16.8155 8.86706 17.6376H13.6747C13.915 17.2331 14.2539 16.8942 14.6584 16.654V14.9876H3.02092C2.66944 14.9876 2.3834 15.2737 2.3834 15.6251V17.0001Z" fill="#9DB8FF" stroke="#9DB8FF" stroke-width="0.1"/>
</svg>
