<svg width="23" height="23" viewBox="0 0 23 23" fill="none" xmlns="http://www.w3.org/2000/svg">
<path d="M20.125 12.7031C17.4615 13.7812 14.5501 14.3749 11.5 14.3749C8.44991 14.3749 5.53849 13.7812 2.875 12.7031M15.3333 5.74996V3.83329C15.3333 2.77475 14.4752 1.91663 13.4167 1.91663H9.58333C8.52479 1.91663 7.66667 2.77475 7.66667 3.83329V5.74996M11.5 11.5H11.5096M4.79167 19.1666H18.2083C19.2669 19.1666 20.125 18.3085 20.125 17.25V7.66663C20.125 6.60808 19.2669 5.74996 18.2083 5.74996H4.79167C3.73312 5.74996 2.875 6.60808 2.875 7.66663V17.25C2.875 18.3085 3.73312 19.1666 4.79167 19.1666Z" stroke="#9DB8FF" stroke-width="2" stroke-linecap="round" stroke-linejoin="round"/>
</svg>
