<svg width="108" height="25" viewBox="0 0 108 25" fill="none" xmlns="http://www.w3.org/2000/svg">
<mask id="mask0_3642_442" style="mask-type:luminance" maskUnits="userSpaceOnUse" x="18" y="0" width="90" height="25">
<path fill-rule="evenodd" clip-rule="evenodd" d="M18.1582 0.71582H107.257V24.7374H18.1582V0.71582Z" fill="white"/>
</mask>
<g mask="url(#mask0_3642_442)">
<path fill-rule="evenodd" clip-rule="evenodd" d="M76.2581 14.3903C76.634 12.2722 77.9352 10.5273 80.2916 10.5273C82.6461 10.5273 83.9388 12.2574 84.2268 14.3975L84.2538 14.5993H76.2212L76.2581 14.3903ZM86.8483 22.6654C87.2413 22.315 87.4534 21.8524 87.4534 21.3308C87.4534 20.3261 86.709 19.5536 85.6748 19.5536C85.223 19.5536 84.9169 19.6464 84.5531 19.91C83.4458 20.7115 82.2354 21.118 80.8564 21.118C78.4705 21.118 76.8344 19.8477 76.326 17.5554L76.2779 17.3395H86.5056C87.8095 17.3395 88.6828 16.3977 88.6828 15.1385C88.6828 13.1988 87.9334 11.1822 86.669 9.69169C85.0501 7.78368 82.7931 6.9082 80.2914 6.9082C75.1896 6.9082 71.6675 10.9555 71.6675 15.8229V15.8881C71.6675 21.1014 75.506 24.7376 80.79 24.7376C83.0456 24.7376 85.1195 24.1087 86.8483 22.6654ZM60.8336 20.8245C60.196 20.8245 59.5689 20.6887 58.9931 20.4195C57.1903 19.5771 56.332 17.7138 56.332 15.8226V15.7575C56.332 13.8663 57.19 12.003 58.9929 11.1606C59.5689 10.8914 60.1958 10.7559 60.8336 10.7559C61.4543 10.7559 62.0655 10.8842 62.6301 11.1379C64.471 11.9648 65.3684 13.8398 65.3684 15.7575V15.8226C65.3684 17.7246 64.5049 19.5823 62.6855 20.422C62.1054 20.6896 61.4744 20.8245 60.8336 20.8245ZM51.7114 22.2431C51.7114 23.5136 52.7601 24.5419 54.0555 24.5419C55.3291 24.5419 56.3988 23.5338 56.3988 22.2757V21.7526L56.72 22.1287C58.1625 23.8188 59.8678 24.6722 62.13 24.6722C62.9986 24.6722 63.8634 24.5331 64.6843 24.2538C66.256 23.7185 67.5709 22.7049 68.4967 21.3517C69.6127 19.7196 70.0563 17.7682 70.0563 15.8227V15.7575C70.0563 13.6697 69.5351 11.5864 68.2379 9.89929C67.1661 8.50519 65.6617 7.52478 63.9292 7.11648C63.3404 6.97783 62.7355 6.90795 62.13 6.90795C59.8121 6.90795 58.0922 7.86139 56.7267 9.67121L56.3988 10.1058V3.01439C56.3988 1.7441 55.3506 0.71582 54.0555 0.71582C52.7601 0.71582 51.7114 1.7441 51.7114 3.01439V22.2431ZM27.3805 20.8245C26.7397 20.8245 26.1087 20.6896 25.5286 20.422C23.709 19.5823 22.8457 17.7246 22.8457 15.8226V15.7575C22.8457 13.8398 23.7431 11.9648 25.584 11.1379C26.1486 10.8842 26.7596 10.7559 27.3805 10.7559C28.0181 10.7559 28.6449 10.8914 29.2212 11.1606C31.0238 12.003 31.8821 13.8663 31.8821 15.7575V15.8226C31.8821 17.7138 31.0236 19.5771 29.2209 20.4195C28.6449 20.6887 28.0181 20.8245 27.3805 20.8245ZM36.5026 22.2434V9.33733C36.5026 8.06681 35.4542 7.03854 34.1591 7.03854C32.8637 7.03854 31.8155 8.06681 31.8155 9.33733V10.1061L31.4876 9.67147C30.1221 7.86165 28.4024 6.9082 26.0843 6.9082C25.4787 6.9082 24.8739 6.97809 24.2851 7.11673C22.5525 7.52503 21.0482 8.50545 19.9764 9.89955C18.6792 11.5867 18.1582 13.67 18.1582 15.7578V15.8229C18.1582 17.7685 18.6018 19.7199 19.7178 21.3519C20.6434 22.7051 21.9582 23.7188 23.5299 24.2541C24.3508 24.5334 25.2157 24.6725 26.0843 24.6725C28.3465 24.6725 30.052 23.819 31.4943 22.129L31.8155 21.7528V22.2759C31.8155 23.5341 32.8852 24.5421 34.1591 24.5421C35.4542 24.5421 36.5026 23.5139 36.5026 22.2434ZM39.0591 22.2429C39.0591 23.5134 40.1075 24.5417 41.4027 24.5417C42.698 24.5417 43.7465 23.5134 43.7465 22.2429V17.615C43.7465 14.7068 44.7188 12.1285 47.8746 11.4121C48.9553 11.1667 49.628 10.3652 49.628 9.27171C49.628 7.90322 48.7461 7.03809 47.3506 7.03809C45.7663 7.03809 44.6331 8.94206 44.0954 10.1885L43.7465 10.9977V9.33688C43.7465 8.06636 42.698 7.03809 41.4027 7.03809C40.1075 7.03809 39.0591 8.06636 39.0591 9.33688V22.2429ZM94.8323 14.3903C95.2083 12.2722 96.5096 10.5273 98.866 10.5273C101.22 10.5273 102.513 12.2574 102.801 14.3975L102.828 14.5993H94.7954L94.8323 14.3903ZM105.423 22.6654C105.816 22.315 106.028 21.8524 106.028 21.3308C106.028 20.3261 105.283 19.5536 104.249 19.5536C103.797 19.5536 103.491 19.6464 103.127 19.91C102.02 20.7115 100.81 21.118 99.4309 21.118C97.0449 21.118 95.4086 19.8477 94.9 17.5554L94.8521 17.3395H105.08C106.384 17.3395 107.257 16.3977 107.257 15.1385C107.257 13.1988 106.508 11.1822 105.243 9.69169C103.624 7.78368 101.368 6.9082 98.8659 6.9082C93.7638 6.9082 90.2417 10.9555 90.2417 15.8229V15.8881C90.2417 21.1014 94.08 24.7376 99.3644 24.7376C101.62 24.7376 103.693 24.1087 105.423 22.6654Z" fill="#1C1C1C"/>
</g>
<path fill-rule="evenodd" clip-rule="evenodd" d="M9.26404 24.2374C11.4958 24.2374 13.3029 23.6699 14.9974 22.1519C15.3605 21.8266 15.5845 21.3748 15.5845 20.8747C15.5845 19.9668 14.8369 19.2269 13.961 19.2269C13.58 19.2269 13.2151 19.3716 12.923 19.6224C11.8193 20.5262 10.803 20.9421 9.37966 20.9421C6.52705 20.9421 4.64058 18.4783 4.64058 15.6583V15.6106C4.64058 12.8112 6.55358 10.3744 9.37966 10.3744C10.651 10.3744 11.7019 10.799 12.7116 11.5727C13.0487 11.7933 13.344 11.9226 13.7527 11.9226C14.698 11.9226 15.4687 11.1593 15.4687 10.1797C15.4687 9.63489 15.2192 9.08873 14.7917 8.76177C13.1692 7.52013 11.4067 7.0791 9.40282 7.0791C6.8826 7.0791 4.51853 8.09691 2.89724 10.111C1.63922 11.6735 1 13.6356 1 15.6583V15.7058C1 20.523 4.57272 24.2374 9.26404 24.2374Z" fill="#1C1C1C"/>
<path d="M9.26404 24.2374C11.4958 24.2374 13.3029 23.6699 14.9974 22.1519C15.3605 21.8266 15.5845 21.3748 15.5845 20.8747C15.5845 19.9668 14.8369 19.2269 13.961 19.2269C13.58 19.2269 13.2151 19.3716 12.923 19.6224C11.8193 20.5262 10.803 20.9421 9.37966 20.9421C6.52705 20.9421 4.64058 18.4783 4.64058 15.6583V15.6106C4.64058 12.8112 6.55358 10.3744 9.37966 10.3744C10.651 10.3744 11.7019 10.799 12.7116 11.5727C13.0487 11.7933 13.344 11.9226 13.7527 11.9226C14.698 11.9226 15.4687 11.1593 15.4687 10.1797C15.4687 9.63489 15.2192 9.08873 14.7917 8.76177C13.1692 7.52013 11.4067 7.0791 9.40282 7.0791C6.8826 7.0791 4.51853 8.09691 2.89724 10.111C1.63922 11.6735 1 13.6356 1 15.6583V15.7058C1 20.523 4.57272 24.2374 9.26404 24.2374" stroke="#1C1C1C"/>
</svg>
