<svg width="23" height="23" viewBox="0 0 23 23" fill="none" xmlns="http://www.w3.org/2000/svg">
<path d="M19.5635 13.8916L18.6789 14.3578V14.3578L19.5635 13.8916ZM15.5601 6.29404L16.4448 5.82786V5.82786L15.5601 6.29404ZM7.44007 6.29404L6.55538 5.82787V5.82787L7.44007 6.29404ZM3.43662 13.8916L4.32131 14.3578H4.32131L3.43662 13.8916ZM12.7158 2.17632L13.1262 1.26441V1.26441L12.7158 2.17632ZM10.2843 2.17632L10.6947 3.08823L10.2843 2.17632ZM19.8838 19.6389L20.4367 20.4722L19.8838 19.6389ZM21.0643 17.8264L20.0762 17.6726L21.0643 17.8264ZM3.11638 19.6389L2.56342 20.4722H2.56342L3.11638 19.6389ZM1.93584 17.8264L2.92394 17.6726L1.93584 17.8264ZM12.5001 8.62047C12.4976 8.06819 12.0479 7.62249 11.4956 7.62497C10.9433 7.62745 10.4976 8.07717 10.5001 8.62945L12.5001 8.62047ZM10.5216 13.421C10.5241 13.9733 10.9738 14.419 11.5261 14.4165C12.0783 14.4141 12.524 13.9643 12.5216 13.4121L10.5216 13.421ZM12.5001 16.2916C12.5001 15.7393 12.0524 15.2916 11.5001 15.2916C10.9478 15.2916 10.5001 15.7393 10.5001 16.2916H12.5001ZM10.5001 16.3012C10.5001 16.8535 10.9478 17.3012 11.5001 17.3012C12.0524 17.3012 12.5001 16.8535 12.5001 16.3012H10.5001ZM7.49663 21.125H15.5035V19.125H7.49663V21.125ZM20.4482 13.4254L16.4448 5.82786L14.6754 6.76022L18.6789 14.3578L20.4482 13.4254ZM6.55538 5.82787L2.55193 13.4254L4.32131 14.3578L8.32476 6.76022L6.55538 5.82787ZM16.4448 5.82786C15.8009 4.60592 15.2858 3.62606 14.8168 2.90778C14.3535 2.19804 13.8386 1.585 13.1262 1.26441L12.3054 3.08823C12.4772 3.16554 12.731 3.37142 13.1421 4.00109C13.5476 4.62222 14.0125 5.50228 14.6754 6.76022L16.4448 5.82786ZM8.32476 6.76022C8.98762 5.50228 9.45255 4.62222 9.85804 4.00109C10.2691 3.37142 10.523 3.16554 10.6947 3.08823L9.87396 1.26441C9.16158 1.585 8.64667 2.19804 8.18332 2.90778C7.71441 3.62606 7.19927 4.60592 6.55538 5.82787L8.32476 6.76022ZM13.1262 1.26441C12.0958 0.800698 10.9044 0.800698 9.87396 1.26441L10.6947 3.08823C11.2032 2.85942 11.797 2.85942 12.3054 3.08823L13.1262 1.26441ZM15.5035 21.125C16.701 21.125 17.6645 21.1259 18.4175 21.0605C19.167 20.9954 19.8584 20.856 20.4367 20.4722L19.3308 18.8057C19.1768 18.9079 18.8941 19.0115 18.2445 19.068C17.5985 19.1241 16.738 19.125 15.5035 19.125V21.125ZM18.6789 14.3578C19.2321 15.4077 19.6128 16.1324 19.846 16.6991C20.0803 17.2682 20.0988 17.5276 20.0762 17.6726L22.0524 17.9803C22.1605 17.2864 21.9723 16.6104 21.6955 15.9378C21.4176 15.2627 20.9826 14.4394 20.4482 13.4254L18.6789 14.3578ZM20.4367 20.4722C21.3009 19.8987 21.8934 19.0012 22.0524 17.9803L20.0762 17.6726C20.0071 18.1167 19.7456 18.5304 19.3308 18.8057L20.4367 20.4722ZM7.49663 19.125C6.26214 19.125 5.40168 19.1241 4.75568 19.068C4.10608 19.0115 3.82335 18.9079 3.66935 18.8057L2.56342 20.4722C3.14175 20.856 3.83318 20.9954 4.58263 21.0605C5.33568 21.1259 6.29918 21.125 7.49663 21.125V19.125ZM2.55193 13.4254C2.0176 14.4394 1.58256 15.2627 1.30468 15.9378C1.02781 16.6104 0.8397 17.2864 0.947748 17.9803L2.92394 17.6726C2.90136 17.5276 2.91984 17.2682 3.15412 16.6991C3.38738 16.1324 3.76804 15.4077 4.32131 14.3578L2.55193 13.4254ZM3.66935 18.8057C3.25453 18.5304 2.99309 18.1167 2.92394 17.6726L0.947748 17.9803C1.10671 19.0012 1.69929 19.8987 2.56342 20.4722L3.66935 18.8057ZM10.5001 8.62945L10.5216 13.421L12.5216 13.4121L12.5001 8.62047L10.5001 8.62945ZM10.5001 16.2916V16.3012H12.5001V16.2916H10.5001Z" fill="#9DB8FF"/>
</svg>
